<?xml version="1.0" encoding="iso-8859-1"?>
<!-- Generator: Adobe Illustrator 19.0.0, SVG Export Plug-In . SVG Version: 6.00 Build 0)  -->
<svg version="1.1" id="Capa_1" xmlns="http://www.w3.org/2000/svg" xmlns:xlink="http://www.w3.org/1999/xlink" x="0px" y="0px"
	 viewBox="0 0 512 512" style="enable-background:new 0 0 512 512;" xml:space="preserve">
<circle style="fill:#FFE05C;" cx="256" cy="267" r="245"/>
<g>
	<path style="fill:#FE3745;" d="M286.5,208c-13.895,0-25.722-8.733-30.368-21h-1.264c-4.646,12.267-16.474,21-30.368,21
		c-6.172,0-11.94-1.724-16.853-4.713v110.181l1.665-1.429c0.211-0.181,0.337-0.442,0.348-0.72s-0.094-0.548-0.291-0.745
		c-1.557-1.562-2.08-3.833-1.366-5.927c0.031-0.091,0.103-0.162,0.195-0.193c0.6-0.204,1.229-0.308,1.868-0.308
		c1.537,0,2.98,0.598,4.065,1.682c0.108,0.108,0.206,0.226,0.306,0.341c0.19,0.223,0.468,0.35,0.76,0.35
		c0.005,0,0.595-0.004,0.595-0.004c5.369,0,16.025,1.084,27.07,8.345c13.408,8.815,23.262,23.876,29.313,44.752h14.477l-0.007,1.588
		h17.709V202.65C299.23,206.029,293.097,208,286.5,208z"/>
	<path style="fill:#FE3745;" d="M216.46,339.604c-0.106-2.352-2.107-4.266-4.461-4.266h-4.352v63.906l8.804-59.449
		C216.46,339.732,216.463,339.668,216.46,339.604z"/>
	<path style="fill:#FE3745;" d="M299.741,407.794h-64.258c-3.84,0-8.111,3.078-9.327,6.722l-9.739,29.222h87.937V409.13
		C302.896,408.298,301.285,407.794,299.741,407.794z"/>
</g>
<g>
	<path style="fill:#E52E49;" d="M224.5,208c-4.471,0-8.728-0.909-12.604-2.542l-4.249,4.249v28.284l37.135-37.135
		C239.223,205.314,232.182,208,224.5,208z"/>
	<path style="fill:#E52E49;" d="M286.5,208c-7.56,0-14.5-2.599-20.017-6.93l-58.836,58.836v28.284l80.22-80.22
		C287.414,207.989,286.958,208,286.5,208z"/>
	<path style="fill:#E52E49;" d="M214.13,305.828c0.108,0.108,0.206,0.226,0.306,0.341c0.19,0.223,0.468,0.35,0.76,0.35
		c0.005,0,0.595-0.004,0.595-0.004c4.122,0,11.362,0.651,19.499,4.232l69.063-69.064v-28.284l-91.496,91.496
		C213.314,305.151,213.75,305.448,214.13,305.828z"/>
	<path style="fill:#E52E49;" d="M261.527,334.709l42.826-42.826v-28.284l-55.685,55.686
		C253.513,323.481,257.804,328.631,261.527,334.709z"/>
	<polygon style="fill:#E52E49;" points="207.647,360.305 207.647,388.589 209.499,386.736 214.416,353.536 	"/>
	<path style="fill:#E52E49;" d="M268.741,349.409c1.258,3.232,2.404,6.641,3.44,10.216l14.609,0.019l17.562-17.562v-28.284
		L268.741,349.409z"/>
	<path style="fill:#E52E49;" d="M235.482,407.794c-3.84,0-8.111,3.078-9.327,6.722l-2.881,8.644l15.366-15.366H235.482z"/>
	<polygon style="fill:#E52E49;" points="260.556,407.794 224.612,443.738 252.895,443.738 288.84,407.794 	"/>
	<polygon style="fill:#E52E49;" points="304.353,443.738 304.353,414.196 274.811,443.738 	"/>
</g>
<path style="fill:#EF9614;" d="M268.091,347.808V202.251c-5.898-4.072-10.399-10.026-12.591-17.015
	c-0.62,1.975-1.443,3.857-2.409,5.649v132.657C259.104,329.959,264.116,338.067,268.091,347.808z"/>
<rect x="250.59" y="407.79" style="fill:#CC8250;" width="20" height="35.944"/>
<rect x="250.59" y="407.79" style="fill:#A06944;" width="10.409" height="35.944"/>
<path style="fill:#1A2B63;" d="M260.619,359.613h12.611c-15.274-53.156-51.022-54.495-59.419-54.046
	c0.105,0.09,0.22,0.163,0.319,0.262c1.151,1.15,1.763,2.735,1.68,4.348c-0.021,0.417,0.218,0.803,0.6,0.969
	c22.946,9.953,34.152,35.202,38.79,49.367c0.134,0.411,0.518,0.689,0.95,0.689h4.468v-1.589H260.619z"/>
<g>
	<path style="fill:#3562BC;" d="M269.151,392.794c-0.551,0-1-0.449-1-1v-2.593c0-0.551,0.449-1,1-1h1v-8.253c0-0.552-0.448-1-1-1
		h-4.267c-4.264,0-7.733-3.47-7.733-7.735v-11.012h-1c-4.469-13.651-15.81-39.767-39.342-49.974
		c0.097-1.879-0.592-3.728-1.971-5.106c-1.273-1.273-2.969-1.975-4.772-1.975c-0.748,0-1.487,0.122-2.192,0.362
		c-0.384,0.132-0.685,0.433-0.816,0.816c-0.838,2.458-0.223,5.122,1.604,6.956l-20.657,17.729c-1.381,1.188-2.255,3.628-1.938,5.424
		l1.011,5.734c0.317,1.794,2.067,3.264,3.889,3.264h3.652c1.823,0,3.321-1.491,3.33-3.315l0.002-0.464
		c0.01-1.823,1.508-3.314,3.331-3.314h10.719c1.823,0,3.38,1.49,3.462,3.31l-15.276,103.157c-0.102,0.305-0.129,0.619-0.124,0.932
		h17.409l9.634-28.906c1.073-3.217,4.988-6.039,8.378-6.039h34.668v-16h-1.001V392.794z"/>
	<path style="fill:#3562BC;" d="M335.039,442.806c0,0-13.124-55.88-13.124-60.037c0-12.464-2.802-22.568-15.266-22.568h-16.563
		v11.012c0,4.265-3.469,7.735-7.734,7.735h-4.266c-0.552,0-1,0.448-1,1v8.253h1c0.551,0,1,0.449,1,1v2.593c0,0.551-0.449,1-1,1h-1
		v16h22.654c3.391,0,7.306,2.822,8.378,6.038l9.632,28.907h17.412C335.168,443.425,335.141,443.111,335.039,442.806z"/>
</g>
<g>
	<rect x="269.15" y="392.79" style="fill:#994334;" width="8.936" height="16"/>
	<rect x="269.15" y="378.95" style="fill:#994334;" width="8.936" height="9.253"/>
</g>
<path style="fill:#CC8250;" d="M267.151,391.794c0,1.1,0.9,2,2,2h8.936c1.1,0,2-0.9,2-2v-2.593c0-1.1-0.9-2-2-2h-8.936
	c-1.1,0-2,0.9-2,2V391.794z"/>
<circle style="fill:#1A2B63;" cx="210.47" cy="321.88" r="3.105"/>
<path style="fill:#DB722C;" d="M286.619,360.201v6.198c0,2.508-2.04,4.549-4.548,4.549h-16.903c-2.508,0-4.549-2.041-4.549-4.549
	v-6.198h-4.468v11.012c0,4.824,3.91,8.735,8.733,8.735h17.469c4.824,0,8.734-3.911,8.734-8.735v-11.012H286.619z"/>
<path style="fill:#FFAF10;" d="M265.167,371.948c-3.06,0-5.549-2.489-5.549-5.549v-6.786c0-0.533,0.433-0.967,0.968-0.967h26.064
	c0.535,0,0.968,0.434,0.968,0.967v6.786c0,3.06-2.488,5.549-5.548,5.549H265.167z"/>
<g>
	<path style="fill:#1A2B63;" d="M335.163,443.738c0.006-0.313-0.022-0.628-0.124-0.932c0,0-0.773-3.293-1.943-8.332h-18.432
		l3.087,9.264H335.163z"/>
	<path style="fill:#1A2B63;" d="M217.471,443.738l3.087-9.264h-19.139l-1.234,8.332c-0.102,0.305-0.129,0.619-0.124,0.932H217.471z"
		/>
</g>
<g>
	<rect x="390.09" y="329.65" style="fill:#EF9614;" width="15" height="30.352"/>
	<path style="fill:#EF9614;" d="M405.091,269.665v-62.117c-5.622-0.942-10.752-3.327-15-6.762v44.611
		C396.104,251.814,401.116,259.924,405.091,269.665z"/>
</g>
<path style="fill:#CC8250;" d="M407.591,443.738V361c0-1.1-0.9-2-2-2h-16c-1.1,0-2,0.9-2,2v82.738H407.591z"/>
<path style="fill:#A06944;" d="M398,443.738V361c0-1.1,0.9-2,2-2h-10.409c-1.1,0-2,0.9-2,2v82.738H398z"/>
<path style="fill:#10827C;" d="M397.619,281.467l12.611,0.016c-15.274-53.156-51.022-54.51-59.419-54.062
	c0.104,0.091,0.22,0.164,0.319,0.262c1.151,1.15,1.763,2.735,1.68,4.348c-0.022,0.417,0.218,0.803,0.6,0.969
	c22.946,9.953,34.152,35.202,38.79,49.367c0.134,0.411,0.518,0.689,0.95,0.689h4.468v-1.589H397.619z"/>
<g>
	<path style="fill:#00CCBD;" d="M472.039,364.66c0,0-13.124-55.88-13.124-60.037c0-12.464-2.802-22.568-15.266-22.568h-16.563
		v11.012c0,4.265-3.469,7.735-7.734,7.735h-4.266c-0.552,0-1,0.448-1,1v8.253h1c0.551,0,1,0.449,1,1v2.593c0,0.551-0.449,1-1,1h-1
		v16h22.654c3.391,0,7.306,2.822,8.378,6.038l9.909,29.737c0.379,1.138,1.444,1.906,2.644,1.906h11.723
		c0.896,0,1.737-0.43,2.261-1.157C472.18,366.444,472.322,365.51,472.039,364.66z"/>
	<path style="fill:#00CCBD;" d="M406.151,314.648c-0.551,0-1-0.449-1-1v-2.593c0-0.551,0.449-1,1-1h1v-8.253c0-0.552-0.448-1-1-1
		h-4.267c-4.264,0-7.733-3.47-7.733-7.735v-11.012h-1c-4.469-13.651-15.81-39.767-39.342-49.974
		c0.097-1.879-0.592-3.728-1.971-5.106c-1.273-1.273-2.969-1.975-4.772-1.975c-0.749,0-1.487,0.122-2.192,0.362
		c-0.384,0.132-0.685,0.433-0.816,0.816c-0.838,2.459-0.223,5.122,1.604,6.956l-20.657,17.73c-1.381,1.188-2.255,3.628-1.939,5.424
		l1.011,5.734c0.317,1.794,2.067,3.264,3.889,3.264h3.652c1.823,0,3.321-1.491,3.33-3.314l0.002-0.464
		c0.01-1.823,1.508-3.314,3.331-3.314H349c1.823,0,3.38,1.49,3.462,3.31L337.185,364.66c-0.283,0.85-0.141,1.784,0.383,2.511
		s1.365,1.157,2.261,1.157h11.721c1.2,0,2.265-0.768,2.644-1.905l9.911-29.736c1.073-3.217,4.988-6.039,8.378-6.039h34.668v-16
		H406.151z"/>
</g>
<g>
	<rect x="406.15" y="314.65" style="fill:#CC8250;" width="8.936" height="16"/>
	<rect x="406.15" y="300.75" style="fill:#CC8250;" width="8.936" height="9.308"/>
</g>
<path style="fill:#994334;" d="M404.151,313.648c0,1.1,0.9,2,2,2h8.936c1.1,0,2-0.9,2-2v-2.593c0-1.1-0.9-2-2-2h-8.936
	c-1.1,0-2,0.9-2,2V313.648z"/>
<circle style="fill:#10827C;" cx="347.46" cy="243.74" r="3.105"/>
<path style="fill:#DB722C;" d="M423.619,282.055v6.198c0,2.508-2.04,4.549-4.548,4.549h-16.903c-2.508,0-4.549-2.041-4.549-4.549
	v-6.198h-4.468v11.012c0,4.824,3.91,8.735,8.733,8.735h17.469c4.824,0,8.734-3.911,8.734-8.735v-11.012H423.619z"/>
<path style="fill:#FFAF10;" d="M402.167,293.802c-3.06,0-5.549-2.489-5.549-5.549v-6.786c0-0.533,0.433-0.967,0.968-0.967h26.064
	c0.535,0,0.968,0.434,0.968,0.967v6.786c0,3.06-2.488,5.549-5.548,5.549H402.167z"/>
<g>
	<path style="fill:#10827C;" d="M455.028,366.422c0.379,1.138,1.444,1.906,2.644,1.906h11.723c0.896,0,1.737-0.43,2.261-1.157
		c0.524-0.727,0.667-1.661,0.383-2.511c0,0-0.773-3.293-1.943-8.332h-18.432L455.028,366.422z"/>
	<path style="fill:#10827C;" d="M339.829,368.328h11.721c1.2,0,2.265-0.768,2.644-1.905l3.364-10.095h-19.139l-1.234,8.332
		c-0.283,0.85-0.141,1.784,0.383,2.511C338.092,367.898,338.933,368.328,339.829,368.328z"/>
</g>
<g>
	<path style="fill:#EF9614;" d="M116.091,281.428v-77.413c-4.466,2.449-9.569,3.875-15,3.972v43.63
		c5.827,8.015,10.474,17.979,13.902,29.809L116.091,281.428z"/>
	<rect x="101.09" y="329.59" style="fill:#EF9614;" width="15" height="30.407"/>
</g>
<path style="fill:#CC8250;" d="M118.591,443.738V361c0-1.1-0.9-2-2-2h-16c-1.1,0-2,0.9-2,2v82.738H118.591z"/>
<path style="fill:#A06944;" d="M109,443.738V361c0-1.1,0.9-2,2-2h-10.409c-1.1,0-2,0.9-2,2v82.738H109z"/>
<path style="fill:#E52E49;" d="M266,51.51V31.717C263.19,33.771,259.74,35,256,35c-3.74,0-7.19-1.229-10-3.283V51.51H266z"/>
<path style="fill:#C0272D;" d="M256,51.51V35c-3.74,0-7.19-1.229-10-3.283V51.51H256z"/>
<path style="fill:#B7092B;" d="M230.13,69.398h51.74c0.211,0,0.421,0.016,0.63,0.043v-13.99c0-2.858-2.338-5.196-5.196-5.196
	h-42.607c-2.858,0-5.196,2.338-5.196,5.196v13.99C229.708,69.415,229.918,69.398,230.13,69.398z"/>
<path style="fill:#960B15;" d="M230.13,69.398h10.282V55.451c0-2.858,2.338-5.196,5.196-5.196h-10.912
	c-2.858,0-5.196,2.338-5.196,5.196v13.99C229.708,69.415,229.918,69.398,230.13,69.398z"/>
<path style="fill:#E52E49;" d="M433.535,158L284.439,68.71c-0.776-0.465-1.664-0.71-2.569-0.71h-51.74
	c-0.905,0-1.792,0.246-2.569,0.71L78.465,158H433.535z"/>
<path style="fill:#FE3745;" d="M426.687,442.735H85.313c26.507,25.751,58.818,45.552,94.786,57.262h151.802
	C367.869,488.287,400.18,468.486,426.687,442.735z"/>
<g>
	<path style="fill:#00CCBD;" d="M68.879,184c3.387,14.332,16.254,25,31.621,25s28.233-10.668,31.621-25H68.879z"/>
	<path style="fill:#00CCBD;" d="M88.883,184H68.879c3.387,14.332,16.254,25,31.621,25c3.49,0,6.849-0.557,10-1.575
		C99.777,203.961,91.502,195.074,88.883,184z"/>
</g>
<path style="fill:#B7092B;" d="M130.879,184c3.387,14.332,16.254,25,31.621,25s28.233-10.668,31.621-25H130.879z"/>
<path style="fill:#960B15;" d="M150.883,184h-20.004c3.387,14.332,16.254,25,31.621,25c3.49,0,6.849-0.557,10-1.575
	C161.777,203.961,153.502,195.074,150.883,184z"/>
<g>
	<path style="fill:#B7092B;" d="M378.879,184c3.387,14.332,16.254,25,31.621,25s28.233-10.668,31.621-25H378.879z"/>
	<path style="fill:#B7092B;" d="M254.879,184c3.387,14.332,16.254,25,31.621,25s28.233-10.668,31.621-25H254.879z"/>
</g>
<g>
	<path style="fill:#00CCBD;" d="M192.879,184c3.387,14.332,16.254,25,31.621,25s28.233-10.668,31.621-25H192.879z"/>
	<path style="fill:#00CCBD;" d="M212.883,184h-20.004c3.387,14.332,16.254,25,31.621,25c3.49,0,6.849-0.557,10-1.575
		C223.777,203.961,215.502,195.074,212.883,184z"/>
</g>
<path style="fill:#960B15;" d="M274.883,184h-20.004c3.387,14.332,16.254,25,31.621,25c3.49,0,6.849-0.557,10-1.575
	C285.777,203.961,277.502,195.074,274.883,184z"/>
<g>
	<path style="fill:#00CCBD;" d="M316.879,184c3.387,14.332,16.254,25,31.621,25s28.233-10.668,31.621-25H316.879z"/>
	<path style="fill:#00CCBD;" d="M336.883,184h-20.004c3.387,14.332,16.254,25,31.621,25c3.49,0,6.849-0.557,10-1.575
		C347.777,203.961,339.502,195.074,336.883,184z"/>
</g>
<path style="fill:#960B15;" d="M398.883,184h-20.004c3.387,14.332,16.254,25,31.621,25c3.49,0,6.849-0.557,10-1.575
	C409.777,203.961,401.502,195.074,398.883,184z"/>
<polygon style="fill:#FFFFFF;" points="378.362,158 274.46,68 237.54,68 133.638,158 "/>
<polygon style="fill:#E52E49;" points="332.68,158 267.568,68 244.432,68 179.32,158 "/>
<polygon style="fill:#FFFFFF;" points="286.998,158 260.677,68 251.323,68 225.002,158 "/>
<path style="fill:#FE3745;" d="M453.5,180c0,2.75-2.25,5-5,5h-385c-2.75,0-5-2.25-5-5v-18c0-2.75,2.25-5,5-5h385c2.75,0,5,2.25,5,5
	V180z"/>
<path style="fill:#E52E49;" d="M89,180v-18c0-2.75,2.25-5,5-5H63.5c-2.75,0-5,2.25-5,5v18c0,2.75,2.25,5,5,5H94
	C91.25,185,89,182.75,89,180z"/>
<circle style="fill:#EF9614;" cx="256" cy="18" r="18"/>
<path style="fill:#EF8318;" d="M248,18c0-8.205,5.494-15.113,13-17.281C259.411,0.26,257.737,0,256,0c-9.941,0-18,8.059-18,18
	s8.059,18,18,18c1.737,0,3.411-0.26,5-0.719C253.494,33.113,248,26.205,248,18z"/>
<path style="fill:#B7092B;" d="M137.976,481.735C172.984,501.018,213.207,512,256,512s83.016-10.982,118.024-30.265H137.976z"/>
<path style="fill:#FFC610;" d="M119.582,451.89c-5.86,0-10.61,4.751-10.61,10.61c0,0.172,0.018,0.34,0.026,0.51
	c4.471,3.358,9.065,6.561,13.766,9.614c4.305-1.352,7.429-5.372,7.429-10.124C130.193,456.641,125.442,451.89,119.582,451.89z"/>
<circle style="fill:#00CCBD;" cx="165.06" cy="462.5" r="10.61"/>
<circle style="fill:#FFC610;" cx="210.53" cy="462.5" r="10.61"/>
<circle style="fill:#00CCBD;" cx="256" cy="462.5" r="10.61"/>
<circle style="fill:#FFC610;" cx="301.47" cy="462.5" r="10.61"/>
<circle style="fill:#00CCBD;" cx="346.94" cy="462.5" r="10.61"/>
<path style="fill:#FFC610;" d="M392.417,451.89c-5.86,0-10.61,4.751-10.61,10.61c0,4.751,3.124,8.772,7.429,10.124
	c4.701-3.052,9.294-6.255,13.766-9.614c0.008-0.17,0.026-0.338,0.026-0.51C403.027,456.641,398.277,451.89,392.417,451.89z"/>
<path style="fill:#F24976;" d="M103.436,281.428h12.611c-15.274-53.156-51.022-54.511-59.418-54.063
	c0.104,0.09,0.22,0.163,0.319,0.262c1.151,1.15,1.763,2.735,1.68,4.348c-0.021,0.417,0.218,0.803,0.601,0.969
	c22.946,9.953,34.152,35.202,38.79,49.367c0.134,0.411,0.518,0.689,0.95,0.689h4.468L103.436,281.428L103.436,281.428z"/>
<g>
	<path style="fill:#F87EAB;" d="M177.857,364.605c0,0-13.123-55.88-13.123-60.037c0-12.464-2.802-22.568-15.266-22.568h-16.563
		v11.012c0,4.265-3.469,7.735-7.734,7.735h-4.266c-0.552,0-1,0.448-1,1V310h1c0.551,0,1,0.449,1,1v2.593c0,0.551-0.449,1-1,1h-1v16
		h22.654c3.391,0,7.306,2.822,8.378,6.038l9.909,29.737c0.379,1.138,1.444,1.906,2.644,1.906h11.723c0.896,0,1.737-0.43,2.261-1.157
		C177.998,366.389,178.14,365.455,177.857,364.605z"/>
	<path style="fill:#F87EAB;" d="M111.969,314.593c-0.551,0-1-0.449-1-1V311c0-0.551,0.449-1,1-1h1v-8.253c0-0.552-0.448-1-1-1
		h-4.267c-4.264,0-7.733-3.47-7.733-7.735V282h-1c-4.469-13.651-15.81-39.767-39.342-49.974c0.097-1.879-0.592-3.728-1.971-5.106
		c-1.273-1.273-2.969-1.975-4.772-1.975c-0.748,0-1.487,0.122-2.192,0.362c-0.384,0.132-0.685,0.433-0.816,0.816
		c-0.838,2.458-0.223,5.122,1.604,6.956l-20.657,17.729c-1.381,1.188-2.255,3.628-1.938,5.424l1.011,5.734
		c0.317,1.794,2.067,3.264,3.889,3.264h3.652c1.823,0,3.321-1.491,3.33-3.315l0.002-0.464c0.01-1.823,1.508-3.314,3.331-3.314
		h10.719c1.823,0,3.38,1.49,3.462,3.311L43.003,364.605c-0.283,0.85-0.141,1.784,0.383,2.511s1.365,1.157,2.261,1.157h11.721
		c1.2,0,2.265-0.767,2.644-1.905l9.911-29.736c1.073-3.217,4.988-6.038,8.378-6.038h34.669v-16h-1.001V314.593z"/>
</g>
<g>
	<rect x="111.97" y="300.75" style="fill:#994334;" width="8.936" height="9.253"/>
	<rect x="111.97" y="314.59" style="fill:#994334;" width="8.936" height="16"/>
</g>
<path style="fill:#FFAF10;" d="M109.969,313.593c0,1.1,0.9,2,2,2h8.936c1.1,0,2-0.9,2-2V311c0-1.1-0.9-2-2-2h-8.936
	c-1.1,0-2,0.9-2,2V313.593z"/>
<circle style="fill:#E52E49;" cx="53.28" cy="243.68" r="3.105"/>
<path style="fill:#DB722C;" d="M129.466,282l-0.03,6.198c0,2.508-2.04,4.549-4.548,4.549h-16.903c-2.508,0-4.549-2.041-4.549-4.549
	V282h-4.468v11.012c0,4.824,3.91,8.735,8.733,8.735h17.469c4.824,0,8.734-3.911,8.734-8.735V282H129.466z"/>
<path style="fill:#FFAF10;" d="M107.985,293.747c-3.06,0-5.549-2.489-5.549-5.549v-6.786c0-0.533,0.433-0.967,0.968-0.967h26.064
	c0.535,0,0.968,0.434,0.968,0.967v6.786c0,3.06-2.488,5.549-5.548,5.549H107.985z"/>
<g>
	<path style="fill:#F24976;" d="M160.846,366.367c0.379,1.138,1.444,1.906,2.644,1.906h11.723c0.896,0,1.737-0.43,2.261-1.157
		c0.524-0.727,0.667-1.661,0.383-2.511c0,0-0.773-3.293-1.943-8.332h-18.432L160.846,366.367z"/>
	<path style="fill:#F24976;" d="M45.647,368.273h11.721c1.2,0,2.265-0.767,2.644-1.905l3.364-10.095H44.237l-1.234,8.332
		c-0.283,0.85-0.141,1.784,0.383,2.511C43.91,367.843,44.751,368.273,45.647,368.273z"/>
</g>
<g>
</g>
<g>
</g>
<g>
</g>
<g>
</g>
<g>
</g>
<g>
</g>
<g>
</g>
<g>
</g>
<g>
</g>
<g>
</g>
<g>
</g>
<g>
</g>
<g>
</g>
<g>
</g>
<g>
</g>
</svg>
